<?xml version="1.0" encoding="UTF-8" standalone="no"?><!-- Generator: Gravit.io --><svg xmlns="http://www.w3.org/2000/svg" xmlns:xlink="http://www.w3.org/1999/xlink" style="isolation:isolate" viewBox="32.707 29.82 35.35 29.494" width="35.35pt" height="29.494pt"><path d=" M 41.611 34.091 C 42.28 33.602 40.968 30.45 44.698 29.872 C 46.525 29.589 48.917 30.387 49.74 34.091 Q 57.973 36.252 60.031 40.471 L 68.057 44.999 Q 66.719 51.378 57.87 53.025 Q 51.006 53.578 51.469 58.078 C 51.931 62.578 32.826 53.572 32.71 50.465 C 32.595 47.359 35.18 42.709 35.643 41.474 C 36.106 40.239 38.263 36.538 41.611 34.091 Z  M 55.4 40.394" fill-rule="evenodd" fill="rgb(219,219,219)"/><clipPath id="_clipPath_p0bTPq6PXU6HSXvtyvjUcxpfjy5Hdofi"><path d=" M 41.611 34.091 C 42.28 33.602 40.968 30.45 44.698 29.872 C 46.525 29.589 48.917 30.387 49.74 34.091 Q 57.973 36.252 60.031 40.471 L 68.057 44.999 Q 66.719 51.378 57.87 53.025 Q 51.006 53.578 51.469 58.078 C 51.931 62.578 32.826 53.572 32.71 50.465 C 32.595 47.359 35.18 42.709 35.643 41.474 C 36.106 40.239 38.263 36.538 41.611 34.091 Z  M 55.4 40.394" fill-rule="evenodd" fill="rgb(219,219,219)"/></clipPath><g clip-path="url(#_clipPath_p0bTPq6PXU6HSXvtyvjUcxpfjy5Hdofi)"><path d=" M 66.513 48.343 Q 48.859 46.259 45.329 51.816 Q 44.46 50.253 45.734 48.343 Q 39.469 49.688 38.344 53.625 Q 37.219 57.563 29.816 57.835 L 27.733 45.449 L 33.521 32.425 L 58.178 24.322 L 64.545 37.982 L 70.507 46.433 L 66.513 48.343 Z " fill="rgb(255,255,255)" vector-effect="non-scaling-stroke" stroke-width="1" stroke="rgb(219,219,219)" stroke-linejoin="miter" stroke-linecap="square" stroke-miterlimit="3"/></g></svg>